<svg width="512" height="512" viewBox="0 0 256 256" fill="none" xmlns="http://www.w3.org/2000/svg" role="img" aria-labelledby="title desc">
  <title id="title">Radiant Portal symbol</title>
  <desc id="desc">A circular portal symbol with radiant lines and a central upward path representing guided progress toward work opportunities.</desc>

  <defs>
    <linearGradient id="ringGradient" x1="32" y1="32" x2="224" y2="224" gradientUnits="userSpaceOnUse">
      <stop offset="0" stop-color="#0B5FFF"/>
      <stop offset="1" stop-color="#00A3A3"/>
    </linearGradient>
    <linearGradient id="coreGradient" x1="128" y1="72" x2="128" y2="188" gradientUnits="userSpaceOnUse">
      <stop offset="0" stop-color="#0B5FFF"/>
      <stop offset="1" stop-color="#0D9488"/>
    </linearGradient>
  </defs>

  <circle cx="128" cy="128" r="94" stroke="url(#ringGradient)" stroke-width="10"/>

  <circle cx="128" cy="128" r="18" fill="#0B5FFF" opacity="0.12"/>
  <circle cx="128" cy="128" r="8" fill="#0B5FFF"/>

  <path d="M96 178V110C96 92.3269 110.327 78 128 78C145.673 78 160 92.3269 160 110V178" stroke="url(#coreGradient)" stroke-width="10" stroke-linecap="round" stroke-linejoin="round"/>

  <path d="M128 52V30" stroke="#0B5FFF" stroke-width="8" stroke-linecap="round"/>
  <path d="M95 60L82 42" stroke="#2563EB" stroke-width="6" stroke-linecap="round"/>
  <path d="M161 60L174 42" stroke="#2563EB" stroke-width="6" stroke-linecap="round"/>

  <circle cx="128" cy="20" r="4" fill="#0B5FFF"/>
  <circle cx="70" cy="38" r="4" fill="#0B5FFF" opacity="0.7"/>
  <circle cx="186" cy="38" r="4" fill="#0B5FFF" opacity="0.7"/>

  <circle cx="224" cy="128" r="3.5" fill="#0D9488"/>
  <circle cx="205" cy="187" r="3.5" fill="#0D9488" opacity="0.85"/>
  <circle cx="156" cy="221" r="3.5" fill="#0D9488" opacity="0.85"/>
  <circle cx="100" cy="221" r="3.5" fill="#0D9488" opacity="0.85"/>
  <circle cx="51" cy="187" r="3.5" fill="#0D9488" opacity="0.85"/>
  <circle cx="32" cy="128" r="3.5" fill="#0D9488"/>
  <circle cx="51" cy="69" r="3.5" fill="#0D9488" opacity="0.85"/>
  <circle cx="100" cy="35" r="3.5" fill="#0D9488" opacity="0.85"/>
  <circle cx="156" cy="35" r="3.5" fill="#0D9488" opacity="0.85"/>
  <circle cx="205" cy="69" r="3.5" fill="#0D9488" opacity="0.85"/>
</svg>
